<svg xmlns="http://www.w3.org/2000/svg" xmlns:xlink="http://www.w3.org/1999/xlink" version="1.1" x="0px" y="0px" viewBox="0 0 100 125" enable-background="new 0 0 100 100" xml:space="preserve"><g><g><path d="M79.419,26.016L41.893,4.35c-0.232-0.134-0.518-0.134-0.75,0L20.581,16.222c-0.232,0.134-0.375,0.381-0.375,0.649v56.463    c0,0.268,0.143,0.516,0.375,0.648l37.526,21.666c0.115,0.063,0.246,0.102,0.375,0.102s0.259-0.034,0.375-0.102l20.562-11.871    c0.231-0.133,0.375-0.381,0.375-0.648V26.666C79.794,26.398,79.65,26.15,79.419,26.016z M57.732,93.701L21.706,72.9V18.17    l13.29,7.673L57.732,38.97V93.701z M58.482,37.671l-36.026-20.8L41.518,5.866l36.026,20.8L58.482,37.671z M78.294,82.695    l-12.655,7.308l-6.406,3.699V38.97l12.656-7.307l6.405-3.699V82.695z"/><path d="M30.2,70.391c-0.154-0.089-0.346-0.089-0.5,0c-0.155,0.09-0.25,0.254-0.25,0.438v3.055c0,0.185,0.095,0.349,0.25,0.438    l11.359,6.558c0.077,0.044,0.164,0.067,0.25,0.067s0.173-0.022,0.25-0.067c0.155-0.089,0.25-0.254,0.25-0.433v-3.061    c0-0.179-0.095-0.344-0.25-0.433L30.2,70.391z M40.809,79.57L30.45,73.591v-1.899l10.359,5.979V79.57z"/><path d="M55.363,53.906c0.076,0.044,0.164,0.066,0.25,0.066s0.173-0.021,0.25-0.066c0.154-0.09,0.25-0.254,0.25-0.434v-7.729    c0-0.179-0.096-0.344-0.25-0.433L50.5,42.217c-0.154-0.089-0.346-0.089-0.5,0c-0.155,0.089-0.25,0.254-0.25,0.433v7.726    c0,0.179,0.095,0.344,0.25,0.433L55.363,53.906z M50.75,43.516l4.363,2.519v6.572l-4.363-2.521V43.516z"/><path d="M55.363,57.773c0.076,0.045,0.164,0.063,0.25,0.063s0.173-0.021,0.25-0.063c0.154-0.088,0.25-0.254,0.25-0.438v-1.902    c0-0.185-0.096-0.35-0.25-0.438L50.5,51.902c-0.154-0.088-0.346-0.088-0.5,0c-0.155,0.09-0.25,0.255-0.25,0.434v1.908    c0,0.179,0.095,0.344,0.25,0.433L55.363,57.773z M50.75,53.203l4.363,2.52v0.752l-4.363-2.519V53.203z"/><path d="M54.496,58.607c-1.082-0.625-2.116-0.084-2.116,1.012c0,0.928,0.71,2.064,1.616,2.588c0.32,0.186,0.635,0.279,0.934,0.279    c0.709,0,1.188-0.521,1.188-1.289C56.113,60.27,55.402,59.131,54.496,58.607z M54.93,61.486c-0.068,0-0.216-0.021-0.435-0.146    c-0.595-0.343-1.116-1.148-1.116-1.722c0-0.29,0.111-0.29,0.184-0.29c0.068,0,0.215,0.02,0.438,0.145    c0.596,0.344,1.111,1.149,1.111,1.723C55.113,61.486,55.003,61.486,54.93,61.486z"/><path d="M54.496,63.458c-0.803-0.463-1.611-0.026-1.611,0.797c0,0.657,0.479,1.429,1.111,1.793c0.23,0.134,0.458,0.2,0.68,0.2    c0.549,0,0.932-0.411,0.932-0.999C55.607,64.595,55.13,63.824,54.496,63.458z M54.676,65.749v-0.5    c-0.029,0-0.095-0.019-0.18-0.065c-0.35-0.203-0.611-0.656-0.68-0.925c0.029,0,0.095,0.017,0.18,0.066    c0.345,0.198,0.611,0.661,0.682,0.924L54.676,65.749z"/><path d="M29.479,37.195c0.086,0,0.173-0.022,0.25-0.067c0.155-0.089,0.25-0.254,0.25-0.433v-4.193c0-0.179-0.095-0.344-0.25-0.433    l-2.973-1.716c-0.154-0.089-0.346-0.089-0.5,0c-0.155,0.089-0.25,0.254-0.25,0.433v4.193c0,0.179,0.095,0.344,0.25,0.433    l2.973,1.717C29.306,37.172,29.393,37.195,29.479,37.195z M28.979,35.828l-1.973-1.139V31.65l1.973,1.139V35.828z"/><path d="M34.54,40.117c0.086,0,0.173-0.022,0.25-0.067c0.155-0.089,0.25-0.254,0.25-0.433v-4.193c0-0.179-0.095-0.344-0.25-0.433    l-2.974-1.717c-0.154-0.089-0.346-0.089-0.5,0c-0.155,0.089-0.25,0.254-0.25,0.433V37.9c0,0.179,0.095,0.344,0.25,0.433    l2.974,1.717C34.367,40.094,34.454,40.117,34.54,40.117z M34.04,38.75l-1.974-1.14v-3.039l1.974,1.14V38.75z"/><path d="M39.6,43.037c0.086,0,0.173-0.022,0.25-0.067c0.155-0.089,0.25-0.254,0.25-0.433v-4.193c0-0.179-0.095-0.344-0.25-0.433    l-2.974-1.717c-0.154-0.089-0.346-0.089-0.5,0c-0.155,0.089-0.25,0.254-0.25,0.433v4.193c0,0.179,0.095,0.344,0.25,0.433    l2.974,1.717C39.427,43.015,39.513,43.037,39.6,43.037z M39.1,41.671l-1.974-1.139v-3.038l1.974,1.139V41.671z"/><path d="M44.66,45.959c0.086,0,0.173-0.022,0.25-0.067c0.155-0.089,0.25-0.254,0.25-0.433v-4.193c0-0.179-0.095-0.344-0.25-0.433    l-2.972-1.716c-0.154-0.089-0.346-0.089-0.5,0c-0.155,0.089-0.25,0.254-0.25,0.433v4.193c0,0.179,0.095,0.344,0.25,0.433    l2.972,1.716C44.487,45.936,44.573,45.959,44.66,45.959z M44.16,44.593l-1.972-1.138v-3.039l1.972,1.139V44.593z"/><path d="M23.953,24.312c-0.155,0.089-0.25,0.254-0.25,0.433v38.819c0,0.18,0.095,0.345,0.25,0.434l22.76,13.141    c0.077,0.045,0.164,0.067,0.25,0.067s0.173-0.022,0.25-0.067c0.155-0.089,0.25-0.254,0.25-0.433v-38.82    c0-0.179-0.095-0.344-0.25-0.433l-22.76-13.141C24.299,24.223,24.107,24.223,23.953,24.312z M24.703,25.611l21.76,12.563v37.665    l-21.76-12.563V25.611z"/><rect x="24.107" y="33.144" transform="matrix(-0.866 -0.5 0.5 -0.866 49.5798 80.5737)" width="22.957" height="1"/><rect x="24.108" y="41.628" transform="matrix(-0.866 -0.5 0.5 -0.866 45.3405 96.4056)" width="22.957" height="1"/><path d="M29.479,45.402c0.086,0,0.173-0.022,0.25-0.067c0.155-0.089,0.25-0.254,0.25-0.433V40.71c0-0.179-0.095-0.344-0.25-0.433    l-2.973-1.716c-0.154-0.089-0.346-0.089-0.5,0c-0.155,0.089-0.25,0.254-0.25,0.433v4.192c0,0.179,0.095,0.344,0.25,0.433    l2.973,1.716C29.306,45.38,29.393,45.402,29.479,45.402z M28.979,44.036l-1.973-1.139v-3.038l1.973,1.139V44.036z"/><path d="M34.54,48.325c0.086,0,0.173-0.022,0.25-0.067c0.155-0.089,0.25-0.254,0.25-0.433v-4.193c0-0.179-0.095-0.344-0.25-0.433    l-2.974-1.717c-0.154-0.089-0.346-0.089-0.5,0c-0.155,0.089-0.25,0.254-0.25,0.433v4.192c0,0.179,0.095,0.344,0.25,0.433    l2.974,1.717C34.367,48.302,34.454,48.325,34.54,48.325z M34.04,46.958l-1.974-1.14V42.78l1.974,1.14V46.958z"/><path d="M39.6,51.245c0.086,0,0.173-0.022,0.25-0.067c0.155-0.089,0.25-0.254,0.25-0.433v-4.192c0-0.179-0.095-0.344-0.25-0.433    l-2.974-1.717c-0.154-0.089-0.346-0.089-0.5,0c-0.155,0.089-0.25,0.254-0.25,0.433v4.192c0,0.179,0.095,0.344,0.25,0.433    l2.974,1.717C39.427,51.223,39.513,51.245,39.6,51.245z M39.1,49.879l-1.974-1.139v-3.038l1.974,1.139V49.879z"/><path d="M44.66,54.167c0.086,0,0.173-0.022,0.25-0.067c0.155-0.089,0.25-0.254,0.25-0.433v-4.192c0-0.179-0.095-0.344-0.25-0.433    l-2.972-1.716c-0.154-0.089-0.346-0.089-0.5,0c-0.155,0.089-0.25,0.254-0.25,0.433v4.193c0,0.179,0.095,0.344,0.25,0.433    L44.41,54.1C44.487,54.145,44.573,54.167,44.66,54.167z M44.16,52.801l-1.972-1.138v-3.038l1.972,1.139V52.801z"/><rect x="24.104" y="49.838" transform="matrix(-0.866 -0.5 0.5 -0.866 41.2274 111.7226)" width="22.957" height="0.999"/><path d="M29.479,53.609c0.086,0,0.173-0.021,0.25-0.066c0.155-0.089,0.25-0.254,0.25-0.434v-4.192c0-0.179-0.095-0.344-0.25-0.433    l-2.973-1.717c-0.154-0.089-0.346-0.089-0.5,0c-0.155,0.089-0.25,0.254-0.25,0.433v4.192c0,0.18,0.095,0.344,0.25,0.434    l2.973,1.716C29.306,53.588,29.393,53.609,29.479,53.609z M28.979,52.245l-1.973-1.14v-3.042l1.973,1.139V52.245z"/><path d="M34.54,56.532c0.086,0,0.173-0.022,0.25-0.067c0.155-0.089,0.25-0.254,0.25-0.433v-4.193c0-0.179-0.095-0.344-0.25-0.433    l-2.974-1.717c-0.154-0.089-0.346-0.089-0.5,0c-0.155,0.089-0.25,0.254-0.25,0.433v4.192c0,0.18,0.095,0.345,0.25,0.434    l2.974,1.717C34.367,56.51,34.454,56.532,34.54,56.532z M34.04,55.166l-1.974-1.141v-3.039l1.974,1.141V55.166z"/><path d="M39.6,59.453c0.086,0,0.173-0.021,0.25-0.067c0.155-0.089,0.25-0.254,0.25-0.433V54.76c0-0.179-0.095-0.344-0.25-0.433    l-2.974-1.718c-0.154-0.088-0.346-0.088-0.5,0c-0.155,0.09-0.25,0.255-0.25,0.434v4.193c0,0.179,0.095,0.344,0.25,0.433    l2.974,1.717C39.427,59.432,39.513,59.453,39.6,59.453z M39.1,58.087l-1.974-1.139V53.91l1.974,1.139V58.087z"/><path d="M44.66,62.375c0.086,0,0.173-0.021,0.25-0.066c0.155-0.09,0.25-0.254,0.25-0.434v-4.193c0-0.179-0.095-0.344-0.25-0.433    l-2.972-1.716c-0.154-0.09-0.346-0.09-0.5,0c-0.155,0.089-0.25,0.254-0.25,0.433v4.193c0,0.179,0.095,0.344,0.25,0.433    l2.972,1.717C44.487,62.352,44.573,62.375,44.66,62.375z M44.16,61.009l-1.972-1.139v-3.038l1.972,1.138V61.009z"/><rect x="24.108" y="58.044" transform="matrix(-0.866 -0.5 0.5 -0.866 37.1314 127.0383)" width="22.959" height="0.999"/><path d="M29.479,61.818c0.086,0,0.173-0.022,0.25-0.067c0.155-0.089,0.25-0.254,0.25-0.433v-4.193c0-0.18-0.095-0.344-0.25-0.434    l-2.973-1.715c-0.154-0.095-0.346-0.095-0.5,0c-0.155,0.088-0.25,0.254-0.25,0.433v4.192c0,0.179,0.095,0.344,0.25,0.433    l2.973,1.717C29.306,61.795,29.393,61.818,29.479,61.818z M28.979,60.452l-1.973-1.14v-3.037l1.973,1.139V60.452z"/><path d="M34.54,64.74c0.086,0,0.173-0.022,0.25-0.067c0.155-0.089,0.25-0.254,0.25-0.433v-4.193c0-0.179-0.095-0.344-0.25-0.433    l-2.974-1.718c-0.154-0.088-0.346-0.088-0.5,0c-0.155,0.09-0.25,0.254-0.25,0.434v4.191c0,0.18,0.095,0.345,0.25,0.434    l2.974,1.717C34.367,64.717,34.454,64.74,34.54,64.74z M34.04,63.373l-1.974-1.141v-3.037l1.974,1.14V63.373z"/><path d="M39.6,67.661c0.086,0,0.173-0.022,0.25-0.067c0.155-0.089,0.25-0.254,0.25-0.433v-4.192c0-0.179-0.095-0.344-0.25-0.433    l-2.974-1.718c-0.154-0.088-0.346-0.088-0.5,0c-0.155,0.09-0.25,0.255-0.25,0.434v4.191c0,0.18,0.095,0.345,0.25,0.434    l2.974,1.717C39.427,67.639,39.513,67.661,39.6,67.661z M39.1,66.294l-1.974-1.139v-3.038l1.974,1.139V66.294z"/><path d="M44.66,70.582c0.086,0,0.173-0.021,0.25-0.066c0.155-0.09,0.25-0.255,0.25-0.434v-4.191c0-0.18-0.095-0.345-0.25-0.434    l-2.972-1.716c-0.154-0.089-0.346-0.089-0.5,0c-0.155,0.089-0.25,0.254-0.25,0.433v4.192c0,0.179,0.095,0.344,0.25,0.433    l2.972,1.717C44.487,70.559,44.573,70.582,44.66,70.582z M44.16,69.216l-1.972-1.138V65.04l1.972,1.138V69.216z"/><rect x="24.104" y="66.252" transform="matrix(-0.866 -0.5 0.5 -0.866 33.0215 142.3522)" width="22.957" height="0.999"/></g></g></svg>